<svg width="64" height="64" viewBox="0 0 64 64" fill="none" xmlns="http://www.w3.org/2000/svg">
<g clip-path="url(#clip0_252_404)">
<rect width="64" height="64" rx="20" fill="#BFFFE0"/>
<rect x="8" y="16" width="48" height="66" rx="8" fill="white"/>
<mask id="mask0_252_404" style="mask-type:alpha" maskUnits="userSpaceOnUse" x="-2" y="-13" width="68" height="77">
<rect x="-2" y="-13" width="68" height="76.8" fill="#C4C4C4"/>
</mask>
<g mask="url(#mask0_252_404)">
<path d="M45.2684 20.8494C45.2684 20.8494 49.5743 39.0141 43.0096 54.1435L18.3273 56.1435C17.5037 60.967 7.9508 36.6611 10.2096 22.12L45.2684 20.8494Z" fill="#571E0C"/>
<path d="M34.2805 47.9548C33.857 47.9078 33.5041 47.6019 33.4335 47.1784L32.8217 43.7666L26.1629 44.9431L26.657 47.7666C26.7511 48.2372 26.3746 48.6842 25.8805 48.7078L23.7158 48.7548V58.2607H35.9041V48.1195L34.2805 47.9548Z" fill="#FDDECC"/>
<path d="M33.4111 47.0607C32.1876 47.4372 30.9405 47.696 29.5993 47.8137C28.6111 47.9078 27.6699 47.9078 26.7052 47.8372L26.0464 44.096L32.7523 42.9196L33.4111 47.0607Z" fill="#F9C6A9"/>
<path d="M14.5393 34.2139C14.704 36.0727 13.3158 37.6962 11.4805 37.8374C9.62165 38.0021 7.99814 36.6139 7.85696 34.7786C7.71578 32.9433 9.08046 31.2962 10.9158 31.1551C12.751 30.9904 14.3981 32.3551 14.5393 34.2139Z" fill="#FDDECC"/>
<path d="M49.88 31.2266C50.0447 33.0855 48.6564 34.709 46.8211 34.8502C44.9623 35.0149 43.3388 33.6266 43.1976 31.7913C43.0329 29.9325 44.4211 28.309 46.2564 28.1678C48.0917 28.0031 49.7153 29.3913 49.88 31.2266Z" fill="#FDDECC"/>
<path d="M48.0692 30.3089C48.0692 30.3089 48.3751 33.156 45.434 33.0383L45.0339 32.5678L45.481 30.0972C45.481 30.0972 47.1045 31.6031 48.0692 30.3089Z" fill="#F9C6A9"/>
<path d="M8.8208 34.4265C8.8208 34.4265 8.98551 37.2736 11.8796 36.6854L12.1855 36.1677L11.3385 33.8148C11.3385 33.7677 9.99727 35.5324 8.8208 34.4265Z" fill="#F9C6A9"/>
<path d="M45.9973 28.9436C46.7502 37.9319 39.4561 45.9083 29.7149 46.7319C19.9502 47.5554 11.4326 40.9201 10.6796 31.9319C9.92668 22.9436 15.1737 15.1319 26.962 14.1436C38.7502 13.1554 45.2443 19.9554 45.9973 28.9436Z" fill="#FDDECC"/>
<path d="M35.7383 32.1205C35.7853 32.7793 35.3148 33.344 34.6559 33.3911C33.9971 33.4382 33.4324 32.9676 33.3853 32.3087C33.3383 31.6499 33.8089 31.0852 34.4677 31.0382C35.103 30.9911 35.6677 31.4617 35.7383 32.1205Z" fill="#752816"/>
<path d="M22.2805 33.2493C22.3276 33.9081 21.857 34.4728 21.1982 34.5199C20.5393 34.5669 19.9746 34.0963 19.9276 33.4375C19.8805 32.7787 20.3511 32.214 21.0099 32.1669C21.6452 32.1199 22.2334 32.614 22.2805 33.2493Z" fill="#752816"/>
<path d="M24.2324 40.4021L33.4089 39.6962C33.4089 39.6962 28.3736 46.2844 24.2324 40.4021Z" fill="#C1545D"/>
<path d="M29.3394 12.5671C26.963 12.7083 25.2218 12.9436 22.3042 13.3907C17.5512 14.426 8.37476 18.1436 10.6571 31.0848L10.8689 31.0377C11.4571 35.1789 13.7395 37.673 13.7395 37.673C12.963 35.3436 12.9865 32.1201 13.1983 29.5789C13.3865 27.3436 14.4218 26.5907 15.8336 24.826C15.7395 26.1671 15.7865 27.226 15.9512 28.5436L19.9983 23.7201C20.7747 22.7554 22.2336 22.6848 23.1042 23.5789C26.5159 27.1083 33.1277 28.0024 40.61 27.1318C40.61 27.1318 40.7041 25.273 40.5159 23.3671C41.8336 24.5436 42.4924 25.3671 42.9865 27.3436C43.5983 29.7907 44.0924 32.8024 43.7395 35.1318C43.7395 35.1318 45.5983 32.1201 45.4806 27.9318L45.6924 28.1201C45.763 12.7789 32.6571 12.4024 29.3394 12.5671Z" fill="#F9C6A9"/>
<path d="M46.0926 28.1905L45.8808 28.0023C45.9985 32.2846 44.0926 35.367 44.0926 35.367C44.4691 32.9905 43.9514 29.9082 43.3397 27.414C42.822 25.3905 41.8338 24.3788 40.4926 23.1552L40.5397 23.767C40.6573 25.3905 40.5632 26.4964 40.5632 26.4964C32.9161 27.367 26.5632 26.8493 23.0808 23.2258C22.1867 22.3082 20.7044 22.3552 19.9044 23.367L15.6926 28.5905C15.5279 27.2493 15.5279 25.8376 15.622 24.4729C14.9396 25.3435 14.3279 26.0258 13.8573 26.7552C13.3396 27.5788 12.9632 28.4493 12.869 29.6729C12.6573 32.2846 12.6338 35.6023 13.4338 37.9552L10.2808 31.2023C9.76319 27.6729 9.81025 24.6846 10.2102 22.1199C10.2102 22.0964 10.2102 22.0964 10.2102 22.0964C11.975 10.9905 21.1514 8.4964 26.9867 8.04934C30.7514 7.79052 34.5396 8.44934 37.7632 10.4023C40.7043 12.1905 43.7397 15.2964 45.1985 20.6611C45.7867 22.8023 46.1161 25.2729 46.0926 28.1905Z" fill="#571E0C"/>
<path d="M24.4456 37.4379C24.5397 38.4967 22.8221 39.5085 20.6339 39.6967C18.4456 39.885 16.5868 39.1791 16.4927 38.1203C16.3986 37.0614 18.1162 36.0497 20.3045 35.8614C22.5162 35.6732 24.3515 36.3791 24.4456 37.4379Z" fill="#F9C6A9"/>
<path d="M40.6109 36.0733C40.7051 37.1321 38.9874 38.1439 36.7992 38.3321C34.6109 38.5203 32.7521 37.8145 32.658 36.7556C32.5639 35.6968 34.2815 34.6851 36.4697 34.4968C38.6815 34.3086 40.5168 35.0145 40.6109 36.0733Z" fill="#F9C6A9"/>
<path d="M13.4111 37.9555L10.2581 31.2026C9.74048 27.6732 9.78754 24.6849 10.1875 22.1202C10.3993 23.7908 11.2699 25.6967 13.8346 26.7555C13.317 27.5791 12.9405 28.4496 12.8464 29.6732C12.6581 32.2849 12.6111 35.5791 13.4111 37.9555Z" fill="#571E0C"/>
<path d="M46.092 28.1904L45.8802 28.0022C45.9978 32.2845 44.0919 35.3669 44.0919 35.3669C44.4684 32.9904 43.9508 29.9081 43.339 27.414C42.8214 25.3904 41.8331 24.3787 40.4919 23.1551C40.4919 23.1551 43.3625 22.5904 45.1743 20.661C45.7861 22.8022 46.1155 25.2728 46.092 28.1904Z" fill="#571E0C"/>
<path d="M16.3049 14.4257C16.2578 12.8257 14.9637 11.5316 13.3402 11.5316C11.7166 11.5316 10.4225 12.8257 10.3754 14.4257C7.05779 13.9787 5.71661 18.3787 8.61073 19.9316C7.08132 22.9669 10.9637 25.6728 13.3166 23.3669C15.6696 25.6728 19.5754 22.9904 18.0225 19.9316C20.9637 18.3551 19.6225 13.9787 16.3049 14.4257Z" fill="#FAD1E3"/>
<path d="M8.3042 15.4377C8.49243 15.8142 8.72772 16.1671 9.03361 16.4966C9.95125 17.4142 11.2218 17.7672 12.4218 17.5789C12.4689 16.873 12.2101 16.1672 11.6924 15.6495C10.7748 14.6848 9.31596 14.6377 8.3042 15.4377Z" fill="#F6A9CB"/>
<path d="M12.8218 16.9906C12.9865 17.0142 13.1512 17.0377 13.3394 17.0377C14.7277 17.0377 15.8806 15.9083 15.8806 14.4965C15.8806 14.1671 15.81 13.8612 15.7159 13.5789C14.1394 14.0024 12.963 15.3436 12.8218 16.9906Z" fill="#F6A9CB"/>
<path d="M15.4114 17.3677C14.9644 17.3677 14.5409 17.4383 14.1409 17.5794C14.282 18.85 15.3644 19.8383 16.6585 19.8383C17.4114 19.8383 18.0938 19.5089 18.5409 18.9912C17.8585 18.0265 16.7056 17.3677 15.4114 17.3677Z" fill="#F6A9CB"/>
<path d="M12.8704 21.2267C12.8704 22.2384 13.4821 23.1325 14.3527 23.5325C14.8233 22.8972 15.1292 22.0972 15.1292 21.2267C15.1292 20.3561 14.8468 19.5796 14.3527 18.9208C13.4821 19.3443 12.8704 20.2149 12.8704 21.2267Z" fill="#F6A9CB"/>
<path d="M8.72974 20.9666C9.12974 21.1078 9.55325 21.1784 10.0003 21.1784C11.2944 21.1784 12.4474 20.5431 13.1533 19.5548C12.6827 19.0372 12.0239 18.7078 11.2709 18.7078C9.95327 18.7078 8.87091 19.696 8.72974 20.9666Z" fill="#F6A9CB"/>
<path d="M16.3294 18.7091C16.5176 18.7091 16.6823 18.5444 16.6823 18.3561C16.6823 18.1679 16.5176 18.0032 16.3294 18.0032C16.1882 18.0032 16.0705 18.0973 15.9999 18.215L14.0235 18.2385L15.8588 17.462C15.9529 17.5561 16.0941 17.5797 16.2353 17.5326C16.4235 17.462 16.4941 17.2502 16.4235 17.0855C16.3529 16.8973 16.1411 16.8267 15.9764 16.8973C15.8353 16.9444 15.7647 17.0855 15.7647 17.2267L13.9529 18.0032L15.3411 16.5914C15.4588 16.6385 15.6235 16.615 15.7176 16.5208C15.8588 16.3797 15.8588 16.1679 15.7176 16.0267C15.5764 15.8855 15.3646 15.8855 15.2235 16.0267C15.1294 16.1208 15.1058 16.2855 15.1529 16.4032L13.7647 17.815L14.5176 15.9797C14.6588 15.9797 14.7764 15.8855 14.847 15.7679C14.9176 15.5797 14.8235 15.3914 14.6588 15.3208C14.4706 15.2502 14.2823 15.3444 14.2117 15.5091C14.1647 15.6502 14.1882 15.7914 14.2823 15.8855L13.5293 17.7208V15.7444C13.647 15.6973 13.7411 15.5561 13.7411 15.415C13.7411 15.2267 13.5764 15.062 13.3882 15.062C13.1999 15.062 13.0352 15.2267 13.0352 15.415C13.0352 15.5561 13.1294 15.6738 13.247 15.7444V17.815L12.3529 15.9326C12.447 15.8385 12.4705 15.6738 12.3999 15.5561C12.3058 15.3914 12.1176 15.2973 11.9294 15.3914C11.7647 15.4855 11.6705 15.6738 11.7646 15.862C11.8352 16.0032 11.9529 16.0738 12.0941 16.0502L12.9411 17.8385L11.4823 16.4973C11.5294 16.3797 11.4823 16.215 11.3882 16.1208C11.247 15.9797 11.0352 16.0032 10.8941 16.1444C10.7529 16.2855 10.7764 16.4973 10.9176 16.6385C11.0352 16.7326 11.1764 16.7561 11.2941 16.6855L12.7529 18.0032L10.8941 17.3208C10.8941 17.1797 10.8 17.062 10.6588 17.015C10.4706 16.9444 10.2823 17.0385 10.2117 17.2267C10.1411 17.415 10.2352 17.6032 10.4235 17.6738C10.5647 17.7208 10.7058 17.6738 10.8 17.5797L12.6588 18.2385L10.6823 18.3326C10.6352 18.215 10.4941 18.1208 10.3529 18.1444C10.1647 18.1444 9.99996 18.3091 10.0235 18.4973C10.0235 18.6855 10.1882 18.8502 10.3764 18.8267C10.5176 18.8267 10.6352 18.7326 10.6823 18.5914L12.6588 18.4973L10.847 19.3208C10.7529 19.2267 10.5882 19.2032 10.4706 19.2738C10.3058 19.3444 10.2117 19.5561 10.3058 19.7444C10.3999 19.9326 10.5882 20.0032 10.7764 19.9091C10.9176 19.8385 10.9882 19.7208 10.9882 19.5797L12.7764 18.7561L11.4352 20.215C11.3176 20.1679 11.1529 20.1914 11.0588 20.3091C10.9176 20.4502 10.9411 20.662 11.0823 20.8032C11.2235 20.9444 11.4353 20.9208 11.5764 20.7797C11.6706 20.6855 11.6941 20.5208 11.647 20.4032L12.9882 18.9679L12.2823 20.8267C12.1411 20.8267 12.0235 20.9208 11.9764 21.062C11.9058 21.2502 12 21.4385 12.1882 21.5091C12.3764 21.5797 12.5647 21.4855 12.6353 21.2973C12.6823 21.1561 12.6588 21.015 12.5411 20.9208L13.247 19.0855L13.2941 21.062C13.1764 21.1091 13.0823 21.2502 13.0823 21.3914C13.0823 21.5797 13.247 21.7444 13.4352 21.7208C13.6235 21.7208 13.7882 21.5561 13.7647 21.3679C13.7647 21.2267 13.6705 21.1091 13.5529 21.062L13.5058 19.0855L14.3058 20.8973C14.2117 20.9914 14.1882 21.1561 14.2352 21.2738C14.3058 21.4385 14.5176 21.5326 14.7058 21.462C14.8705 21.3914 14.9646 21.1797 14.8941 20.9914C14.847 20.8502 14.7058 20.7797 14.5646 20.7797L13.7647 18.9679L15.2 20.3326C15.1529 20.4502 15.1764 20.615 15.2941 20.7091C15.4352 20.8502 15.647 20.8267 15.7882 20.7091C15.9294 20.5679 15.9058 20.3561 15.7882 20.215C15.6941 20.1208 15.5294 20.0973 15.4117 20.1444L14 18.7797L15.8353 19.5091C15.8353 19.6502 15.9294 19.7679 16.047 19.815C16.2352 19.8855 16.4235 19.7914 16.4941 19.6267C16.5647 19.4385 16.4705 19.2502 16.3058 19.1797C16.1647 19.1326 16.0235 19.1561 15.9294 19.2502L14.0235 18.5444L15.9999 18.5208C16.0705 18.6385 16.1882 18.7091 16.3294 18.7091Z" fill="#FEECEA"/>
<path d="M13.3395 19.9788C14.2232 19.9788 14.9395 19.2625 14.9395 18.3788C14.9395 17.4952 14.2232 16.7788 13.3395 16.7788C12.4559 16.7788 11.7395 17.4952 11.7395 18.3788C11.7395 19.2625 12.4559 19.9788 13.3395 19.9788Z" fill="#FBAA19"/>
<path d="M38.1147 48.2135L30.3971 57.8606L22.3735 48.7782L25.8088 48.5429L30.4677 52.8017L34.3735 47.837L38.1147 48.2135Z" fill="white"/>
<path d="M22.3738 48.7079L21.2209 48.7549C17.1503 48.7549 13.4091 50.8961 11.2915 54.3785C6.51502 62.1902 10.9617 73.5409 0.749958 75.8938C-0.732395 76.2232 -1.5324 77.8467 -1.06182 79.282L6.51466 102.694C7.14995 104.694 9.45583 105.588 11.2911 104.6C16.2794 101.894 25.2441 95.9173 30.1852 85.9644L20.6091 70.1432L30.3974 57.8608L22.3738 48.7079Z" fill="url(#paint0_linear_252_404)"/>
<path d="M68.3996 84.6002C69.882 84.9296 79.7169 80.0265 79.2464 81.4618L71.6699 104.874C71.0111 106.85 68.7287 107.768 66.8699 106.779C61.8817 104.074 52.917 98.0735 47.9993 88.1441C47.8581 92.0029 47.5052 84.4029 51.4346 149.65C51.4346 152.403 36.8228 153.485 25.5522 152.85C25.1993 152.826 24.8464 152.803 24.4934 152.779C17.8817 152.332 12.6816 151.297 12.6816 149.65L16.0699 93.1088C16.6346 83.697 14.5875 92.1676 20.5875 70.1441C32.5875 55.0853 28.7287 59.9323 38.117 48.1912L42.9169 48.8029C43.6934 48.8029 44.4464 48.8735 45.1993 49.0147C45.5758 49.1088 45.9287 49.1794 46.2817 49.297C48.964 50.097 51.317 51.9088 52.8464 54.4029C57.6228 62.1912 58.1878 82.2472 68.3996 84.6002Z" fill="url(#paint1_linear_252_404)"/>
<path opacity="0.34" d="M46.3033 49.2722L26.6327 77.6252L25.5974 152.825C25.2444 152.802 24.8915 152.778 24.5386 152.755L25.5739 77.2958L25.6915 77.1781L45.2445 49.0134C45.5974 49.084 45.9268 49.1781 46.3033 49.2722Z" fill="#F6A9CB"/>
<path d="M40.2329 48.4491L38.1388 48.1667L20.6094 70.1432H23.0329L40.2329 48.4491Z" fill="#F6A9CB"/>
<path opacity="0.32" d="M16.5396 71.3197C16.5396 71.3197 18.7748 63.7197 19.1042 62.1432C19.1042 62.1432 20.9631 67.5314 25.716 69.4844L16.5396 71.3197Z" fill="#D08582"/>
<path opacity="0.32" d="M47.7641 71.3192C47.7641 71.3192 46.517 63.4839 46.2112 61.9075C46.2112 61.9075 43.3641 67.531 38.5876 69.4604L47.7641 71.3192Z" fill="#D08582"/>
<path d="M30.4688 52.8017L28.3982 55.6017L27.5276 54.5899L29.5982 52.0017L30.4688 52.8017Z" fill="#E6E7E8"/>
<path d="M29.1991 59.3667L30.3991 57.8608L22.3756 48.7079L21.2226 48.7549C20.8932 48.7549 20.5638 48.802 20.2344 48.8255L29.1991 59.3667Z" fill="#F6A9CB"/>
</g>
</g>
<defs>
<linearGradient id="paint0_linear_252_404" x1="7.56802" y1="55.1161" x2="7.56802" y2="80.3274" gradientUnits="userSpaceOnUse">
<stop stopColor="#71E9AF"/>
<stop offset="0.9845" stopColor="#71E9AF"/>
</linearGradient>
<linearGradient id="paint1_linear_252_404" x1="46.0421" y1="53.0366" x2="46.0421" y2="98.0458" gradientUnits="userSpaceOnUse">
<stop stopColor="#71E9AF"/>
<stop offset="0.9845" stopColor="#2BFF98"/>
</linearGradient>
<clipPath id="clip0_252_404">
<rect width="64" height="64" rx="20" fill="white"/>
</clipPath>
</defs>
</svg>
